# xmcd
#
# Track frame offsets: 
#        150
#        20447
#        37175
#        49380
#        67262
#        97285
#        114767
#        132325
#        144300
#        167100
#        178167
#        197262
#        216157
#        230875
#
# Disc length: 3296 seconds
#
# Revision: 2
# Processed by: cddbd v1.5.2PL0 Copyright (c) Steve Scherf et al.
# Submitted via: ExactAudioCopy v0.99pb5
#
DISCID=d70cde0e
DTITLE=Various Artist - From Dublin to Edinburgh
DYEAR=2000
DGENRE=Celtic
TTITLE0=The Broom of the Cowdenknowes - Folk Studio A
TTITLE1=Skye boat song - Adrian Harman
TTITLE2=Star of the country down - Duo Greenoch
TTITLE3=Cailin - Whisky Trail
TTITLE4=Ca' the yowes to the knowes, Ossian's air - Birkin Tree
TTITLE5=The Wild Rover - Her Pillow
TTITLE6=A Fhuiseog Bheag Rua - Kay McCarthy
TTITLE7=An Crùiscìn Làn - Kay McCarthy
TTITLE8=The Shaskeen, The Floating Crowbar, The man of Aran - Birkin T
TTITLE8=ree
TTITLE9=The Mason's Apron - Her Pillow
TTITLE10=Lord Franklin - Folk Studio A
TTITLE11=Whiskey You're the Devil - Whisky Trail
TTITLE12=Early one morning - Adrian Harman
TTITLE13=The lass of Glenshee - Duo Greenoch
EXTD=
EXTT0=
EXTT1=
EXTT2=
EXTT3=
EXTT4=
EXTT5=
EXTT6=
EXTT7=
EXTT8=
EXTT9=
EXTT10=
EXTT11=
EXTT12=
EXTT13=
PLAYORDER=
